<?xml version="1.0" encoding="UTF-8" standalone="no"?>
<svg
   xmlns:dc="http://purl.org/dc/elements/1.1/"
   xmlns:cc="http://creativecommons.org/ns#"
   xmlns:rdf="http://www.w3.org/1999/02/22-rdf-syntax-ns#"
   xmlns:svg="http://www.w3.org/2000/svg"
   xmlns="http://www.w3.org/2000/svg"
   xmlns:sodipodi="http://sodipodi.sourceforge.net/DTD/sodipodi-0.dtd"
   xmlns:inkscape="http://www.inkscape.org/namespaces/inkscape"
   width="32.57819pt"
   height="31.775175pt"
   viewBox="0 0 32.578192 31.775176"
   version="1.2"
   id="svg192"
   sodipodi:docname="GitHub-Mark.svg"
   inkscape:version="0.92.4 5da689c313, 2019-01-14">
  <metadata
     id="metadata196">
    <rdf:RDF>
      <cc:Work
         rdf:about="">
        <dc:format>image/svg+xml</dc:format>
        <dc:type
           rdf:resource="http://purl.org/dc/dcmitype/StillImage" />
        <dc:title></dc:title>
      </cc:Work>
    </rdf:RDF>
  </metadata>
  <sodipodi:namedview
     pagecolor="#ffffff"
     bordercolor="#666666"
     borderopacity="1"
     objecttolerance="10"
     gridtolerance="10"
     guidetolerance="10"
     inkscape:pageopacity="0"
     inkscape:pageshadow="2"
     inkscape:window-width="2880"
     inkscape:window-height="1552"
     id="namedview194"
     showgrid="false"
     fit-margin-top="0"
     fit-margin-left="0"
     fit-margin-right="0"
     fit-margin-bottom="0"
     inkscape:zoom="2.0025665"
     inkscape:cx="115.65431"
     inkscape:cy="195.445"
     inkscape:window-x="0"
     inkscape:window-y="32"
     inkscape:window-maximized="1"
     inkscape:current-layer="surface1020" />
  <defs
     id="defs5">
    <clipPath
       id="clip1">
      <path
         d="M 0,224 H 530.96875 V 499.98828 H 0 Z m 0,0"
         id="path2"
         inkscape:connector-curvature="0" />
    </clipPath>
  </defs>
  <g
     id="surface1020"
     transform="translate(-131.64607,-294.22108)">
    <path
       inkscape:connector-curvature="0"
       style="fill:#ffffff;fill-opacity:1;fill-rule:evenodd;stroke:none;stroke-width:1"
       d="m 147.93513,294.22108 c -8.99609,0 -16.28906,7.29297 -16.28906,16.28906 0,7.19922 4.66797,13.30079 11.14063,15.45704 0.8125,0.14843 1.10937,-0.35157 1.10937,-0.78516 0,-0.38672 -0.0117,-1.41016 -0.0195,-2.76953 -4.53125,0.98437 -5.48828,-2.1836 -5.48828,-2.1836 -0.74219,-1.88281 -1.80859,-2.38281 -1.80859,-2.38281 -1.48047,-1.01172 0.11328,-0.99219 0.11328,-0.99219 1.63281,0.11719 2.49218,1.67969 2.49218,1.67969 1.45313,2.48828 3.81641,1.76953 4.74219,1.35156 0.14844,-1.05078 0.57031,-1.76953 1.03516,-2.17578 -3.61719,-0.41015 -7.42188,-1.80859 -7.42188,-8.05078 0,-1.77734 0.63672,-3.23437 1.67969,-4.37109 -0.16797,-0.41016 -0.73047,-2.07031 0.16016,-4.3125 0,0 1.36718,-0.4375 4.47656,1.67187 1.30078,-0.36328 2.69531,-0.54297 4.07812,-0.55078 1.38282,0.008 2.77735,0.1875 4.07813,0.55078 3.10937,-2.10937 4.47656,-1.67187 4.47656,-1.67187 0.88672,2.24219 0.32813,3.90234 0.16016,4.3125 1.04687,1.13672 1.67578,2.59375 1.67578,4.37109 0,6.25781 -3.80859,7.63672 -7.4375,8.03906 0.58594,0.50391 1.10547,1.4961 1.10547,3.01563 0,2.17578 -0.0195,3.93359 -0.0195,4.46875 0,0.4375 0.29297,0.94141 1.12109,0.78516 6.46484,-2.16016 11.12891,-8.26172 11.12891,-15.45704 0,-8.99609 -7.29297,-16.28906 -16.28907,-16.28906"
       id="path101" />
  </g>
</svg>
